<svg width="50" height="50" viewBox="0 0 50 50" fill="none" xmlns="http://www.w3.org/2000/svg">
<circle cx="25" cy="25" r="21.875" fill="black"/>
<path fill-rule="evenodd" clip-rule="evenodd" d="M10.7441 34.3122V15.2246H19.568C22.4022 15.2246 24.6998 17.5222 24.6998 20.3565C24.6998 22.1575 24.146 23.2731 22.1155 24.4176C24.5454 25.5248 25.2202 27.0593 25.2202 29.1997C25.2202 32.0951 22.648 34.3122 19.7526 34.3122H10.7441ZM14.478 18.3842V22.9741H18.8481C18.8481 22.9741 20.9722 22.9741 20.9722 20.6791C20.9722 18.3842 18.8481 18.3842 18.8481 18.3842H14.478ZM14.478 31.0795V26.1235H19.1655C19.9223 26.1235 21.5093 26.5141 21.5093 28.8579C21.5093 30.5961 19.9468 31.0633 19.1655 31.0795H14.478Z" fill="#D0D5DD"/>
<path fill-rule="evenodd" clip-rule="evenodd" d="M33.2036 20.4838C30.5181 20.4838 26.5386 22.4125 26.5386 27.5395C26.5386 30.6614 28.2475 34.6684 33.3745 34.6684C37.4761 34.6684 39.3641 31.6573 39.7954 30.1518H35.938C35.7427 30.8354 34.9858 31.5922 33.3745 31.5922C31.0307 31.5922 30.2007 29.5903 30.0786 28.5893H39.7954V27.5395C39.7954 22.4125 35.8891 20.4838 33.2036 20.4838ZM33.2036 23.4135C31.0161 23.4135 30.2088 25.2202 30.0786 26.1235H35.938C35.938 25.2202 35.3911 23.4135 33.2036 23.4135Z" fill="#D0D5DD"/>
<path d="M28.5405 16.309V18.6772H37.7446V16.309H28.5405Z" fill="#D0D5DD"/>
</svg>
