<svg width="135" height="59" viewBox="0 0 135 59" fill="none" xmlns="http://www.w3.org/2000/svg">
<path d="M13.1613 57.8C9.45458 57.8 6.42792 55.36 4.08125 50.48C1.76125 45.6 0.60125 38.4667 0.60125 29.08C0.60125 25.64 0.84125 22.2133 1.32125 18.8C1.82792 15.3867 2.60125 12.28 3.64125 9.48C4.70792 6.65333 6.04125 4.38667 7.64125 2.68C9.26792 0.973331 11.1879 0.119998 13.4013 0.119998C15.0013 0.119998 16.3613 0.653331 17.4813 1.72C18.6279 2.78667 19.4946 4.12 20.0813 5.72C20.6946 7.32 21.0013 8.94667 21.0013 10.6C21.0013 11.9333 20.7879 12.9467 20.3613 13.64C19.9613 14.3067 19.3346 14.64 18.4812 14.64C17.5479 14.64 16.8813 14.3333 16.4813 13.72C16.1079 13.08 15.9213 12.2 15.9213 11.08C15.9213 10.28 16.0413 9.6 16.2813 9.04C16.5479 8.45333 16.8013 7.86666 17.0413 7.28C17.3079 6.66667 17.4413 5.94667 17.4413 5.12C17.4413 4.18667 17.1346 3.36 16.5213 2.64C15.9079 1.92 15.2013 1.56 14.4013 1.56C13.3613 1.56 12.4279 2.17333 11.6013 3.4C10.8013 4.62667 10.1079 6.25333 9.52125 8.28C8.96125 10.3067 8.49458 12.5333 8.12125 14.96C7.74792 17.3867 7.46792 19.8267 7.28125 22.28C7.12125 24.7067 7.04125 26.9467 7.04125 29C7.04125 31.8267 7.13458 34.5867 7.32125 37.28C7.53458 39.9467 7.82792 42.44 8.20125 44.76C8.57458 47.0533 9.02792 49.08 9.56125 50.84C10.1213 52.5733 10.7613 53.9333 11.4813 54.92C12.2013 55.9067 13.0013 56.4 13.8813 56.4C14.9213 56.4 15.8679 56.0267 16.7213 55.28C17.5746 54.5067 18.3079 53.5733 18.9213 52.48C19.5346 51.36 19.9613 50.2933 20.2013 49.28L21.4413 49.96C20.9346 51.3467 20.2946 52.64 19.5213 53.84C18.7479 55.0133 17.8279 55.9733 16.7613 56.72C15.7213 57.44 14.5213 57.8 13.1613 57.8ZM37.485 57.88C35.0317 57.88 32.8983 56.68 31.085 54.28C29.2717 51.8533 27.8717 48.4933 26.885 44.2C25.925 39.88 25.445 34.84 25.445 29.08C25.445 23.2933 25.925 18.24 26.885 13.92C27.8717 9.57333 29.2717 6.18667 31.085 3.76C32.8983 1.33333 35.0317 0.119998 37.485 0.119998C39.9917 0.119998 42.1517 1.33333 43.965 3.76C45.805 6.18667 47.2183 9.57333 48.205 13.92C49.2183 18.24 49.725 23.2933 49.725 29.08C49.725 34.84 49.2183 39.88 48.205 44.2C47.2183 48.4933 45.805 51.8533 43.965 54.28C42.1517 56.68 39.9917 57.88 37.485 57.88ZM37.485 56.64C38.5783 56.64 39.485 55.96 40.205 54.6C40.925 53.24 41.5117 51.32 41.965 48.84C42.445 46.36 42.7783 43.44 42.965 40.08C43.1783 36.72 43.285 33.0533 43.285 29.08C43.285 25.1067 43.1783 21.44 42.965 18.08C42.7783 14.6933 42.445 11.76 41.965 9.28C41.5117 6.77333 40.925 4.82666 40.205 3.44C39.485 2.05333 38.5783 1.36 37.485 1.36C36.445 1.36 35.565 2.05333 34.845 3.44C34.125 4.82666 33.5383 6.77333 33.085 9.28C32.6583 11.76 32.3383 14.6933 32.125 18.08C31.9383 21.44 31.845 25.1067 31.845 29.08C31.845 33.0533 31.9383 36.72 32.125 40.08C32.3383 43.44 32.6583 46.36 33.085 48.84C33.5383 51.32 34.125 53.24 34.845 54.6C35.565 55.96 36.445 56.64 37.485 56.64ZM78.0881 57.64C76.4348 57.64 75.1681 57.1867 74.2881 56.28C73.4348 55.3467 72.8615 54.12 72.5681 52.6C72.2748 51.08 72.1281 49.4267 72.1281 47.64C72.1281 45.9333 72.1815 44.2133 72.2881 42.48C72.4215 40.72 72.4881 39.1067 72.4881 37.64C72.4881 35.48 72.2881 33.76 71.8881 32.48C71.4881 31.1733 70.7815 30.2267 69.7681 29.64C68.7548 29.0533 67.3015 28.76 65.4081 28.76H63.1281V55.76H66.8081V57H53.3681V55.76H57.1681V2.24H53.3681V0.999996H67.9281C70.0615 0.999996 71.9681 1.45333 73.6481 2.36C75.3281 3.24 76.6481 4.64 77.6081 6.56C78.5681 8.45333 79.0481 10.9333 79.0481 14C79.0481 16.4 78.7415 18.4667 78.1281 20.2C77.5148 21.9333 76.7015 23.36 75.6881 24.48C74.6748 25.6 73.5548 26.4533 72.3281 27.04C71.1281 27.6267 69.9281 27.9867 68.7281 28.12C71.5015 28.2 73.5681 28.76 74.9281 29.8C76.3148 30.8133 77.2348 32.28 77.6881 34.2C78.1681 36.12 78.4081 38.4533 78.4081 41.2C78.4081 42.4267 78.3815 43.68 78.3281 44.96C78.2748 46.2133 78.2481 47.44 78.2481 48.64C78.2481 49.6267 78.2881 50.68 78.3681 51.8C78.4748 52.92 78.6615 53.8667 78.9281 54.64C79.1948 55.4133 79.5815 55.8 80.0881 55.8C80.3281 55.8 80.5415 55.6933 80.7281 55.48C80.9415 55.2667 81.0615 55.0133 81.0881 54.72H82.2481C82.1681 55.36 81.9148 55.9067 81.4881 56.36C81.0881 56.7867 80.5815 57.1067 79.9681 57.32C79.3548 57.5333 78.7281 57.64 78.0881 57.64ZM63.1281 27.56H66.2481C67.8748 27.56 69.1681 26.9733 70.1281 25.8C71.0881 24.6 71.7681 23 72.1681 21C72.5948 18.9733 72.8081 16.6933 72.8081 14.16C72.8081 11.8133 72.6481 9.74666 72.3281 7.96C72.0081 6.17333 71.3948 4.77333 70.4881 3.76C69.6081 2.74666 68.3148 2.24 66.6081 2.24H63.1281V27.56ZM85.1231 57V55.76H88.8831V2.24H85.1231V0.999996H98.2831C99.6431 0.999996 100.976 1.24 102.283 1.72C103.616 2.17333 104.803 2.90667 105.843 3.92C106.91 4.90666 107.75 6.2 108.363 7.8C109.003 9.4 109.323 11.3333 109.323 13.6C109.323 15.84 109.056 17.7867 108.523 19.44C107.99 21.0933 107.283 22.48 106.403 23.6C105.523 24.6933 104.563 25.5467 103.523 26.16C102.51 26.7733 101.536 27.16 100.603 27.32C101.59 27.3467 102.656 27.6267 103.803 28.16C104.95 28.6933 106.043 29.52 107.083 30.64C108.15 31.76 109.016 33.2133 109.683 35C110.35 36.76 110.683 38.8933 110.683 41.4C110.683 44.8133 110.19 47.68 109.203 50C108.216 52.32 106.896 54.0667 105.243 55.24C103.616 56.4133 101.776 57 99.7231 57H85.1231ZM94.8031 55.76H98.4831C99.4698 55.76 100.403 55.2533 101.283 54.24C102.19 53.2267 102.923 51.6667 103.483 49.56C104.07 47.4533 104.363 44.7867 104.363 41.56C104.363 38.3333 104.03 35.72 103.363 33.72C102.723 31.72 101.896 30.2667 100.883 29.36C99.8698 28.4267 98.8298 27.96 97.7631 27.96H94.8031V55.76ZM94.8031 26.76H97.7631C98.8031 26.76 99.7365 26.32 100.563 25.44C101.416 24.5333 102.083 23.12 102.563 21.2C103.043 19.2533 103.283 16.72 103.283 13.6C103.283 10.6667 103.003 8.38666 102.443 6.76C101.883 5.10666 101.176 3.94666 100.323 3.28C99.4698 2.58666 98.5765 2.24 97.6431 2.24H94.8031V26.76ZM124.778 58.08C123.738 58.08 122.805 57.9467 121.978 57.68C121.178 57.4133 120.458 57.1067 119.818 56.76C119.205 56.4133 118.671 56.1067 118.218 55.84C117.765 55.5467 117.378 55.4 117.058 55.4C116.551 55.4 116.298 55.9333 116.298 57H115.218V44.8H116.418C116.471 45.68 116.631 46.6533 116.898 47.72C117.191 48.7867 117.578 49.8533 118.058 50.92C118.565 51.96 119.151 52.92 119.818 53.8C120.511 54.68 121.271 55.3867 122.098 55.92C122.925 56.4533 123.818 56.72 124.778 56.72C126.325 56.72 127.498 56.32 128.298 55.52C129.125 54.72 129.685 53.6667 129.978 52.36C130.298 51.0267 130.458 49.5867 130.458 48.04C130.458 46.1467 130.071 44.2267 129.298 42.28C128.525 40.3333 127.525 38.3867 126.298 36.44C125.098 34.4667 123.818 32.5333 122.458 30.64C120.458 27.8933 118.911 25.4667 117.818 23.36C116.751 21.2533 116.005 19.32 115.578 17.56C115.178 15.7733 114.978 14.0133 114.978 12.28C114.978 9.64 115.418 7.41333 116.298 5.6C117.178 3.78666 118.325 2.42666 119.738 1.52C121.151 0.586664 122.658 0.119998 124.258 0.119998C125.538 0.119998 126.605 0.306664 127.458 0.679996C128.338 1.05333 129.058 1.42666 129.618 1.8C130.205 2.17333 130.671 2.36 131.018 2.36C131.285 2.36 131.485 2.26666 131.618 2.08C131.778 1.86667 131.858 1.50666 131.858 0.999996H132.938V13.08H131.738C131.658 11.96 131.458 10.7333 131.138 9.4C130.818 8.06667 130.351 6.8 129.738 5.6C129.151 4.37333 128.405 3.37333 127.498 2.6C126.618 1.82666 125.578 1.44 124.378 1.44C122.938 1.44 121.711 2.02666 120.698 3.2C119.685 4.34667 119.178 6.21333 119.178 8.8C119.178 10.3733 119.405 11.9467 119.858 13.52C120.338 15.0933 121.111 16.7867 122.178 18.6C123.245 20.4133 124.671 22.5067 126.458 24.88C128.031 26.9333 129.445 29.0133 130.698 31.12C131.978 33.2267 132.978 35.4 133.698 37.64C134.445 39.8533 134.818 42.16 134.818 44.56C134.818 46.72 134.551 48.64 134.018 50.32C133.511 52 132.805 53.4133 131.898 54.56C130.991 55.7067 129.925 56.5733 128.698 57.16C127.498 57.7733 126.191 58.08 124.778 58.08Z" fill="black"/>
</svg>
