<svg width="45" height="46" viewBox="0 0 45 46" fill="none" xmlns="http://www.w3.org/2000/svg">
<path d="M22.5 44.7969C34.5381 44.7969 44.2969 35.0381 44.2969 23C44.2969 10.9619 34.5381 1.20312 22.5 1.20312C10.4619 1.20312 0.703125 10.9619 0.703125 23C0.703125 35.0381 10.4619 44.7969 22.5 44.7969Z" fill="white"/>
<path fill-rule="evenodd" clip-rule="evenodd" d="M22.5 0.5C10.0786 0.5 0 10.5786 0 23C0 35.4214 10.0786 45.5 22.5 45.5C34.8969 45.5 45 35.4214 45 23C45 10.5786 34.8969 0.5 22.5 0.5ZM37.3617 10.8715C40.0461 14.1415 41.6568 18.3145 41.7056 22.8291C41.0711 22.7072 34.7261 21.4138 28.3324 22.2191C28.186 21.9019 28.064 21.5601 27.9176 21.2186C27.5271 20.2913 27.0879 19.3395 26.6486 18.4366C33.7255 15.557 36.9468 11.4084 37.3617 10.8715ZM22.5 3.81888C27.3807 3.81888 31.8465 5.64914 35.2387 8.65077C34.8969 9.13883 31.9929 13.019 25.1599 15.5813C22.0119 9.79772 18.5223 5.06345 17.9854 4.33134C19.4251 3.98969 20.9382 3.81888 22.5 3.81888ZM14.3249 5.62473C14.8373 6.30802 18.2538 11.0667 21.4507 16.7283C12.4702 19.1199 4.53905 19.0711 3.68492 19.0711C4.9295 13.1166 8.95607 8.16268 14.3249 5.62473ZM3.27007 23.0245C3.27007 22.8291 3.27007 22.634 3.27007 22.4388C4.09978 22.4631 13.4219 22.5852 23.0124 19.7056C23.5738 20.7792 24.0862 21.8774 24.5744 22.9755C24.3302 23.0488 24.0618 23.1221 23.8178 23.1952C13.91 26.392 8.63883 35.1285 8.19956 35.8606C5.14913 32.4686 3.27007 27.9539 3.27007 23.0245ZM22.5 42.2299C18.0585 42.2299 13.9588 40.7169 10.7131 38.1789C11.0548 37.4713 14.9593 29.955 25.7944 26.1725C25.8432 26.148 25.8677 26.148 25.9165 26.1237C28.6252 33.1274 29.7235 39.0086 30.0163 40.6925C27.6979 41.693 25.1599 42.2299 22.5 42.2299ZM33.2131 38.9355C33.0179 37.7641 31.9929 32.1513 29.4794 25.2451C35.5071 24.2933 40.7782 25.8552 41.4371 26.0749C40.6074 31.4192 37.5325 36.0314 33.2131 38.9355Z" fill="black"/>
</svg>
