<svg width="45" height="46" viewBox="0 0 45 46" fill="none" xmlns="http://www.w3.org/2000/svg">
<g clip-path="url(#clip0_200_1818)">
<path d="M22.5 4.55176C28.5117 4.55176 29.2236 4.57812 31.5879 4.68359C33.7852 4.78027 34.9717 5.14941 35.7627 5.45703C36.8086 5.86133 37.5645 6.35352 38.3467 7.13574C39.1377 7.92676 39.6211 8.67383 40.0254 9.71973C40.333 10.5107 40.7022 11.7061 40.7988 13.8945C40.9043 16.2676 40.9307 16.9795 40.9307 22.9824C40.9307 28.9941 40.9043 29.7061 40.7988 32.0703C40.7022 34.2676 40.333 35.4541 40.0254 36.2451C39.6211 37.291 39.1289 38.0469 38.3467 38.8291C37.5557 39.6201 36.8086 40.1035 35.7627 40.5078C34.9717 40.8154 33.7764 41.1846 31.5879 41.2813C29.2148 41.3867 28.5029 41.4131 22.5 41.4131C16.4883 41.4131 15.7764 41.3867 13.4121 41.2813C11.2148 41.1846 10.0283 40.8154 9.23731 40.5078C8.19141 40.1035 7.43555 39.6113 6.65332 38.8291C5.8623 38.0381 5.37891 37.291 4.97461 36.2451C4.66699 35.4541 4.29785 34.2588 4.20117 32.0703C4.0957 29.6973 4.06934 28.9854 4.06934 22.9824C4.06934 16.9707 4.0957 16.2588 4.20117 13.8945C4.29785 11.6973 4.66699 10.5107 4.97461 9.71973C5.37891 8.67383 5.87109 7.91797 6.65332 7.13574C7.44434 6.34473 8.19141 5.86133 9.23731 5.45703C10.0283 5.14941 11.2236 4.78027 13.4121 4.68359C15.7764 4.57812 16.4883 4.55176 22.5 4.55176ZM22.5 0.5C16.3916 0.5 15.627 0.526367 13.2275 0.631836C10.8369 0.737305 9.19336 1.12402 7.76953 1.67773C6.28418 2.25781 5.02734 3.02246 3.7793 4.2793C2.52246 5.52734 1.75781 6.78418 1.17773 8.26074C0.624023 9.69336 0.237305 11.3281 0.131836 13.7188C0.0263672 16.127 0 16.8916 0 23C0 29.1084 0.0263672 29.873 0.131836 32.2725C0.237305 34.6631 0.624023 36.3066 1.17773 37.7305C1.75781 39.2158 2.52246 40.4727 3.7793 41.7207C5.02734 42.9688 6.28418 43.7422 7.76074 44.3135C9.19336 44.8672 10.8281 45.2539 13.2188 45.3594C15.6182 45.4648 16.3828 45.4912 22.4912 45.4912C28.5996 45.4912 29.3643 45.4648 31.7637 45.3594C34.1543 45.2539 35.7979 44.8672 37.2217 44.3135C38.6982 43.7422 39.9551 42.9688 41.2031 41.7207C42.4512 40.4727 43.2246 39.2158 43.7959 37.7393C44.3496 36.3066 44.7363 34.6719 44.8418 32.2813C44.9473 29.8818 44.9736 29.1172 44.9736 23.0088C44.9736 16.9004 44.9473 16.1357 44.8418 13.7363C44.7363 11.3457 44.3496 9.70215 43.7959 8.27832C43.2422 6.78418 42.4775 5.52734 41.2207 4.2793C39.9727 3.03125 38.7158 2.25781 37.2393 1.68652C35.8066 1.13281 34.1719 0.746094 31.7813 0.640625C29.373 0.526367 28.6084 0.5 22.5 0.5Z" fill="#000100"/>
<path d="M22.499 11.4414C16.1182 11.4414 10.9414 16.6182 10.9414 22.999C10.9414 29.3799 16.1182 34.5566 22.499 34.5566C28.8799 34.5566 34.0566 29.3799 34.0566 22.999C34.0566 16.6182 28.8799 11.4414 22.499 11.4414ZM22.499 30.4961C18.3594 30.4961 15.002 27.1387 15.002 22.999C15.002 18.8594 18.3594 15.502 22.499 15.502C26.6387 15.502 29.9961 18.8594 29.9961 22.999C29.9961 27.1387 26.6387 30.4961 22.499 30.4961Z" fill="#000100"/>
<path d="M37.2129 10.9854C37.2129 12.4795 36 13.6836 34.5146 13.6836C33.0205 13.6836 31.8164 12.4707 31.8164 10.9854C31.8164 9.49121 33.0293 8.28711 34.5146 8.28711C36 8.28711 37.2129 9.5 37.2129 10.9854Z" fill="#000100"/>
</g>
<defs>
<clipPath id="clip0_200_1818">
<rect width="45" height="45" fill="white" transform="translate(0 0.5)"/>
</clipPath>
</defs>
</svg>
