<svg width="45" height="46" viewBox="0 0 45 46" fill="none" xmlns="http://www.w3.org/2000/svg">
<g clip-path="url(#clip0_200_1816)">
<path d="M41.6781 0.5H3.32188C2.44086 0.5 1.59593 0.849983 0.972955 1.47296C0.349983 2.09593 0 2.94086 0 3.82188V42.1781C0 43.0591 0.349983 43.9041 0.972955 44.527C1.59593 45.15 2.44086 45.5 3.32188 45.5H41.6781C42.5591 45.5 43.4041 45.15 44.027 44.527C44.65 43.9041 45 43.0591 45 42.1781V3.82188C45 2.94086 44.65 2.09593 44.027 1.47296C43.4041 0.849983 42.5591 0.5 41.6781 0.5ZM13.4125 38.8344H6.64688V17.3438H13.4125V38.8344ZM10.025 14.3656C9.25756 14.3613 8.50859 14.1297 7.87263 13.7002C7.23666 13.2706 6.7422 12.6622 6.45165 11.9519C6.16109 11.2416 6.08746 10.4611 6.24006 9.70898C6.39265 8.95685 6.76463 8.26677 7.30904 7.72584C7.85345 7.18491 8.5459 6.81738 9.299 6.66961C10.0521 6.52185 10.8321 6.60049 11.5405 6.8956C12.249 7.19071 12.8541 7.68906 13.2796 8.32777C13.7051 8.96648 13.9319 9.71692 13.9313 10.4844C13.9385 10.9982 13.8422 11.5082 13.6481 11.984C13.4541 12.4598 13.1662 12.8917 12.8017 13.2539C12.4372 13.6161 12.0035 13.9012 11.5264 14.0922C11.0494 14.2832 10.5388 14.3762 10.025 14.3656ZM38.35 38.8531H31.5875V27.1125C31.5875 23.65 30.1156 22.5813 28.2156 22.5813C26.2094 22.5813 24.2406 24.0938 24.2406 27.2V38.8531H17.475V17.3594H23.9813V20.3375H24.0688C24.7219 19.0156 27.0094 16.7563 30.5 16.7563C34.275 16.7563 38.3531 18.9969 38.3531 25.5594L38.35 38.8531Z" fill="black"/>
</g>
<defs>
<clipPath id="clip0_200_1816">
<rect width="45" height="45" fill="white" transform="translate(0 0.5)"/>
</clipPath>
</defs>
</svg>
